<svg width="19" height="20" viewBox="0 0 19 20" fill="none" xmlns="http://www.w3.org/2000/svg">
<g clip-path="url(#clip0_1_48)">
<g clip-path="url(#clip1_1_48)">
<path d="M6.71054 9.06132C7.79143 9.06132 8.7274 8.65782 9.49216 7.86173C10.2569 7.06576 10.6446 6.09185 10.6446 4.9667C10.6446 3.84194 10.2569 2.8679 9.49203 2.07167C8.72716 1.27584 7.79131 0.87234 6.71054 0.87234C5.62951 0.87234 4.69379 1.27584 3.92904 2.0718C3.16429 2.86777 2.77649 3.84181 2.77649 4.9667C2.77649 6.09185 3.16429 7.06589 3.92916 7.86186C4.69404 8.65769 5.62989 9.06132 6.71054 9.06132Z" fill="#323030"/>
<path d="M13.594 13.9445C13.572 13.6132 13.5274 13.2519 13.4617 12.8703C13.3954 12.4859 13.31 12.1224 13.2078 11.7903C13.1023 11.447 12.9587 11.1079 12.7813 10.783C12.5971 10.4458 12.3808 10.1522 12.138 9.91056C11.8842 9.65777 11.5734 9.45453 11.214 9.30629C10.8559 9.15882 10.459 9.08411 10.0345 9.08411C9.86772 9.08411 9.70647 9.15532 9.39507 9.36634C9.20341 9.49643 8.97923 9.64688 8.72901 9.81328C8.51505 9.95517 8.2252 10.0881 7.86719 10.2085C7.5179 10.3261 7.16325 10.3858 6.81321 10.3858C6.46317 10.3858 6.10865 10.3261 5.75899 10.2085C5.40135 10.0882 5.1115 9.9553 4.89779 9.81341C4.64993 9.64856 4.42563 9.49811 4.23111 9.36621C3.92007 9.15519 3.7587 9.08398 3.59197 9.08398C3.16728 9.08398 2.77052 9.15882 2.4125 9.30642C2.05337 9.45441 1.74246 9.65764 1.48837 9.91069C1.24575 10.1524 1.0293 10.446 0.845372 10.783C0.668047 11.1079 0.524493 11.4468 0.418822 11.7904C0.316764 12.1226 0.231404 12.4859 0.16511 12.8703C0.0994386 13.2513 0.0548272 13.6128 0.0327707 13.9449C0.011088 14.2701 0.00012207 14.6077 0.00012207 14.9487C0.00012207 15.8361 0.271155 16.5545 0.80562 17.0843C1.33348 17.6072 2.03194 17.8724 2.8813 17.8724H10.7459C11.5952 17.8724 12.2934 17.6073 12.8214 17.0843C13.356 16.5549 13.627 15.8364 13.627 14.9486C13.6269 14.6061 13.6158 14.2682 13.594 13.9445Z" fill="#323030"/>
</g>
</g>
<defs>
<clipPath id="clip0_1_48">
<rect width="18.2553" height="18.2553" fill="white" transform="translate(0 0.87234)"/>
</clipPath>
<clipPath id="clip1_1_48">
<rect width="14" height="17" fill="white" transform="translate(0 0.87234)"/>
</clipPath>
</defs>
</svg>
