<svg width="25" height="25" viewBox="0 0 25 25" fill="none" xmlns="http://www.w3.org/2000/svg">
<path d="M8.88986 5.17753C8.6734 5.17277 8.46083 5.23552 8.28171 5.35715C8.10259 5.47878 7.96582 5.65329 7.89041 5.85624C7.815 6.0592 7.8047 6.28058 7.86094 6.48966C7.91719 6.69875 8.03718 6.88503 8.20423 7.02276L14.5783 12.4834L8.20423 17.942C8.08867 18.027 7.99189 18.1348 7.91995 18.2589C7.84802 18.3829 7.80247 18.5206 7.78617 18.6631C7.76987 18.8055 7.78316 18.9498 7.82522 19.0869C7.86728 19.224 7.93719 19.351 8.03058 19.4599C8.12397 19.5687 8.23883 19.657 8.36796 19.7194C8.49709 19.7818 8.63772 19.8168 8.78103 19.8224C8.92433 19.8279 9.06724 19.8039 9.20079 19.7516C9.33435 19.6993 9.45568 19.6201 9.55718 19.5187L16.8549 13.2748C16.9696 13.177 17.0616 13.0556 17.1247 12.9188C17.1878 12.782 17.2205 12.6331 17.2205 12.4824C17.2205 12.3317 17.1878 12.1828 17.1247 12.046C17.0616 11.9092 16.9696 11.7877 16.8549 11.6899L9.55718 5.43993C9.37282 5.27618 9.13637 5.18309 8.88986 5.17729V5.17753Z" fill="#6B6969"/>
</svg>
