<svg width="25" height="25" viewBox="0 0 25 25" fill="none" xmlns="http://www.w3.org/2000/svg">
<path d="M16.1101 19.8227C16.3265 19.8275 16.5391 19.7647 16.7182 19.6431C16.8973 19.5215 17.0341 19.347 17.1095 19.144C17.1849 18.941 17.1952 18.7197 17.139 18.5106C17.0828 18.3015 16.9628 18.1152 16.7957 17.9775L10.4216 12.5169L16.7957 7.0582C16.9113 6.97326 17.008 6.86544 17.08 6.74137C17.1519 6.6173 17.1975 6.47968 17.2138 6.33719C17.2301 6.1947 17.2168 6.05042 17.1747 5.91331C17.1327 5.7762 17.0627 5.64921 16.9694 5.54037C16.876 5.43153 16.7611 5.34324 16.632 5.28085C16.5028 5.21846 16.3622 5.18341 16.2189 5.17788C16.0756 5.17235 15.9327 5.19639 15.7991 5.24865C15.6656 5.30091 15.5443 5.38018 15.4428 5.4815L8.14499 11.7255C8.03039 11.8233 7.93836 11.9447 7.87526 12.0815C7.81216 12.2183 7.77948 12.3672 7.77948 12.5178C7.77948 12.6685 7.81216 12.8174 7.87526 12.9542C7.93836 13.091 8.03039 13.2125 8.14499 13.3103L15.4428 19.5603C15.6271 19.7241 15.8636 19.8172 16.1101 19.823L16.1101 19.8227Z" fill="#6B6969"/>
</svg>
