<svg width="46" height="27" viewBox="0 0 46 27" fill="none" xmlns="http://www.w3.org/2000/svg">
<g clip-path="url(#clip0_8_1276)">
<path fill-rule="evenodd" clip-rule="evenodd" d="M32.7747 0.262426C36.7607 1.15882 38.2854 3.41765 40.1971 6.52665H32.7747V0.262426ZM9.48025 6.78771C10.2607 6.78771 10.8272 7.1528 10.8272 8.00602C10.8272 8.72565 10.2263 9.30931 9.48411 9.31135H1.34691C0.602951 9.31135 0 9.89603 0 10.6167C0 11.3377 0.602951 11.922 1.34691 11.922H13.4691C14.22 11.922 14.8212 12.506 14.8212 13.2273C14.8212 13.9483 14.2183 14.5327 13.4743 14.5327H1.34691C0.602951 14.5327 0 15.117 0 15.838C0 16.559 0.602951 17.1433 1.34691 17.1433H4.3101V21.0593C4.3101 21.7803 4.91305 22.3646 5.657 22.3646H8.36449C8.84713 24.6687 10.9478 26.3676 13.4242 26.3676C15.9005 26.3676 18.0012 24.6687 18.4838 22.3646H32.1598C32.6425 24.6687 34.7431 26.3676 37.2195 26.3676C39.6958 26.3676 41.7965 24.6687 42.2791 22.3646H44.6275C45.3714 22.3646 45.9744 21.7803 45.9744 21.0593V13.2273C45.9744 9.39735 41.806 9.14308 41.8021 9.1373H31.4278C30.6838 9.1373 30.0809 8.55297 30.0809 7.83197V0H5.657C4.91305 0 4.3101 0.584339 4.3101 1.30533V4.17705H2.69381C1.94986 4.17705 1.34691 4.76139 1.34691 5.48238C1.34691 6.20337 1.94986 6.78771 2.69381 6.78771H9.48025ZM38.9655 19.6717C39.9298 20.6062 39.9298 22.1219 38.9655 23.0564C37.4145 24.5596 34.7502 23.4901 34.7502 21.3639C34.7502 19.238 37.4145 18.1686 38.9655 19.6717ZM15.1702 19.6717C16.1345 20.6062 16.1345 22.1219 15.1702 23.0564C13.6192 24.5596 10.9548 23.4901 10.9548 21.3639C10.9548 19.238 13.6192 18.1686 15.1702 19.6717Z" fill="#323030"/>
</g>
<defs>
<clipPath id="clip0_8_1276">
<rect width="45.9744" height="26.3676" fill="white"/>
</clipPath>
</defs>
</svg>
