<svg width="84" height="18" viewBox="0 0 84 18" fill="none" xmlns="http://www.w3.org/2000/svg">
<path d="M6.82362 0.577111C8.55481 0.577111 10.0676 0.920229 11.3621 1.60646C12.6566 2.2927 13.6548 3.25967 14.3566 4.50737C15.0741 5.73948 15.4328 7.16654 15.4328 8.78856C15.4328 10.395 15.0741 11.822 14.3566 13.0697C13.6548 14.3174 12.6488 15.2844 11.3387 15.9706C10.0443 16.6569 8.53921 17 6.82362 17H0.670883V0.577111H6.82362ZM6.56628 13.5376C8.07912 13.5376 9.25664 13.1243 10.0988 12.2977C10.941 11.4711 11.3621 10.3014 11.3621 8.78856C11.3621 7.27572 10.941 6.0982 10.0988 5.256C9.25664 4.4138 8.07912 3.9927 6.56628 3.9927H4.67133V13.5376H6.56628ZM23.6106 17.1872C22.3317 17.1872 21.1776 16.9142 20.1482 16.3684C19.1344 15.8225 18.3312 15.0427 17.7386 14.0289C17.1615 13.0151 16.873 11.8298 16.873 10.473C16.873 9.13167 17.1693 7.95415 17.762 6.9404C18.3546 5.91104 19.1656 5.12343 20.195 4.57756C21.2244 4.03169 22.3785 3.75875 23.6574 3.75875C24.9363 3.75875 26.0904 4.03169 27.1197 4.57756C28.1491 5.12343 28.9601 5.91104 29.5528 6.9404C30.1454 7.95415 30.4418 9.13167 30.4418 10.473C30.4418 11.8142 30.1376 12.9996 29.5294 14.0289C28.9367 15.0427 28.1179 15.8225 27.073 16.3684C26.0436 16.9142 24.8895 17.1872 23.6106 17.1872ZM23.6106 13.7248C24.3748 13.7248 25.022 13.444 25.5523 12.8826C26.0982 12.3211 26.3711 11.5179 26.3711 10.473C26.3711 9.428 26.106 8.62479 25.5757 8.06333C25.061 7.50186 24.4216 7.22113 23.6574 7.22113C22.8776 7.22113 22.2303 7.50186 21.7156 8.06333C21.201 8.6092 20.9436 9.41241 20.9436 10.473C20.9436 11.5179 21.1932 12.3211 21.6922 12.8826C22.2069 13.444 22.8464 13.7248 23.6106 13.7248ZM38.5063 17.1872C37.2274 17.1872 36.0732 16.9142 35.0439 16.3684C34.0301 15.8225 33.2269 15.0427 32.6343 14.0289C32.0572 13.0151 31.7687 11.8298 31.7687 10.473C31.7687 9.13167 32.065 7.95415 32.6576 6.9404C33.2503 5.91104 34.0613 5.12343 35.0907 4.57756C36.12 4.03169 37.2741 3.75875 38.553 3.75875C39.8319 3.75875 40.9861 4.03169 42.0154 4.57756C43.0448 5.12343 43.8558 5.91104 44.4484 6.9404C45.0411 7.95415 45.3374 9.13167 45.3374 10.473C45.3374 11.8142 45.0333 12.9996 44.425 14.0289C43.8324 15.0427 43.0136 15.8225 41.9686 16.3684C40.9393 16.9142 39.7851 17.1872 38.5063 17.1872ZM38.5063 13.7248C39.2705 13.7248 39.9177 13.444 40.448 12.8826C40.9939 12.3211 41.2668 11.5179 41.2668 10.473C41.2668 9.428 41.0017 8.62479 40.4714 8.06333C39.9567 7.50186 39.3173 7.22113 38.553 7.22113C37.7732 7.22113 37.126 7.50186 36.6113 8.06333C36.0966 8.6092 35.8393 9.41241 35.8393 10.473C35.8393 11.5179 36.0888 12.3211 36.5879 12.8826C37.1026 13.444 37.742 13.7248 38.5063 13.7248ZM59.9758 5.86425C59.9758 6.81563 59.7574 7.68902 59.3207 8.48443C58.884 9.26424 58.2134 9.89589 57.3088 10.3794C56.4042 10.8629 55.2813 11.1046 53.94 11.1046H51.4602V17H47.4597V0.577111H53.94C55.2501 0.577111 56.3574 0.803257 57.262 1.25555C58.1666 1.70784 58.845 2.33169 59.2973 3.1271C59.7496 3.92251 59.9758 4.8349 59.9758 5.86425ZM53.6359 7.92296C54.4001 7.92296 54.9694 7.7436 55.3437 7.38489C55.718 7.02618 55.9051 6.5193 55.9051 5.86425C55.9051 5.20921 55.718 4.70233 55.3437 4.34361C54.9694 3.9849 54.4001 3.80554 53.6359 3.80554H51.4602V7.92296H53.6359ZM74.3639 10.2624C74.3639 10.6367 74.3405 11.0266 74.2937 11.4321H65.2401C65.3024 12.2431 65.5598 12.867 66.0121 13.3037C66.48 13.7248 67.0492 13.9353 67.7199 13.9353C68.718 13.9353 69.4121 13.5142 69.802 12.672H74.0598C73.8414 13.5298 73.4437 14.3018 72.8666 14.9881C72.3052 15.6743 71.5955 16.2124 70.7377 16.6023C69.8799 16.9922 68.9208 17.1872 67.8602 17.1872C66.5813 17.1872 65.4428 16.9142 64.4446 16.3684C63.4465 15.8225 62.6667 15.0427 62.1052 14.0289C61.5437 13.0151 61.263 11.8298 61.263 10.473C61.263 9.11608 61.5359 7.93076 62.0818 6.917C62.6433 5.90324 63.4231 5.12343 64.4212 4.57756C65.4194 4.03169 66.5657 3.75875 67.8602 3.75875C69.1235 3.75875 70.2465 4.02389 71.229 4.55416C72.2116 5.08444 72.9758 5.84086 73.5217 6.82342C74.0831 7.80599 74.3639 8.95232 74.3639 10.2624ZM70.2699 9.20966C70.2699 8.52342 70.0359 7.97755 69.568 7.57204C69.1001 7.16654 68.5153 6.96379 67.8134 6.96379C67.1428 6.96379 66.5735 7.15874 66.1056 7.54865C65.6534 7.93856 65.3726 8.49223 65.2634 9.20966H70.2699ZM83.75 13.6078V17H81.7147C80.2642 17 79.1335 16.6491 78.3225 15.9473C77.5115 15.2298 77.106 14.0679 77.106 12.4615V7.26792H75.5151V3.94591H77.106V0.764267H81.1064V3.94591H83.7266V7.26792H81.1064V12.5083C81.1064 12.8982 81.2 13.1789 81.3871 13.3505C81.5743 13.522 81.8862 13.6078 82.3229 13.6078H83.75Z" fill="white"/>
</svg>
