<svg width="13" height="13" viewBox="0 0 13 13" fill="none" xmlns="http://www.w3.org/2000/svg">
<g clip-path="url(#clip0_9_1665)">
<path d="M1.24774 4.54136C1.41219 4.6574 1.9079 5.00205 2.73489 5.57513C3.56191 6.14821 4.19546 6.58947 4.63558 6.89892C4.68393 6.93284 4.78666 7.00658 4.94381 7.12024C5.101 7.23397 5.2316 7.32587 5.33552 7.39598C5.43952 7.46606 5.56525 7.54467 5.71282 7.6317C5.86035 7.71865 5.99941 7.78405 6.12999 7.82735C6.26059 7.871 6.38149 7.89263 6.49271 7.89263H6.5H6.50732C6.61853 7.89263 6.73948 7.87098 6.87008 7.82735C7.00061 7.78405 7.1398 7.71857 7.2872 7.6317C7.43468 7.54457 7.5604 7.46603 7.6644 7.39598C7.7684 7.32587 7.8989 7.23397 8.05613 7.12024C8.21326 7.00648 8.31612 6.93284 8.36448 6.89892C8.80934 6.58947 9.94114 5.80353 11.7595 4.54121C12.1126 4.29466 12.4075 3.99717 12.6444 3.64894C12.8816 3.30086 13 2.9357 13 2.55367C13 2.23443 12.8851 1.96116 12.6553 1.73387C12.4256 1.50654 12.1535 1.39293 11.8393 1.39293H1.16067C0.788295 1.39293 0.50173 1.51866 0.301023 1.77011C0.100341 2.02161 0 2.33597 0 2.71317C0 3.01785 0.133042 3.34802 0.399 3.70346C0.664933 4.05894 0.94794 4.33826 1.24774 4.54136Z" fill="#323030"/>
<path d="M12.2745 5.31751C10.6883 6.39107 9.48393 7.22541 8.66187 7.82034C8.3862 8.02338 8.16257 8.18189 7.99083 8.29546C7.81909 8.40912 7.59069 8.52519 7.30529 8.64362C7.02 8.76223 6.75412 8.82136 6.50742 8.82136H6.50003H6.49273C6.24609 8.82136 5.98005 8.76223 5.69476 8.64362C5.40946 8.52519 5.18091 8.40912 5.00922 8.29546C4.83758 8.18189 4.61388 8.02338 4.33824 7.82034C3.6853 7.34158 2.48349 6.50719 0.732776 5.31751C0.457035 5.13385 0.212802 4.92333 0 4.68639V10.4463C0 10.7657 0.113604 11.0388 0.340941 11.2661C0.568226 11.4935 0.841527 11.6071 1.16074 11.6071H11.8394C12.1585 11.6071 12.4318 11.4935 12.6591 11.2661C12.8865 11.0387 13 10.7657 13 10.4463V4.68639C12.792 4.91843 12.5503 5.12895 12.2745 5.31751Z" fill="#323030"/>
</g>
<defs>
<clipPath id="clip0_9_1665">
<rect width="13" height="13" fill="white"/>
</clipPath>
</defs>
</svg>
