<svg width="32" height="30" viewBox="0 0 32 30" fill="none" xmlns="http://www.w3.org/2000/svg">
<path d="M20.7236 0.161865C22.5637 0.161865 24.0586 2.96301 24.0586 5.33704C24.0586 7.71107 22.5637 9.63307 20.7236 9.63307C18.8834 9.63307 17.3885 7.71107 17.3885 5.33704C17.3885 2.96301 18.8834 0.161865 20.7236 0.161865Z" fill="#7684E7"/>
<path d="M11.2488 0.161865C13.0889 0.161865 14.5838 2.96301 14.5838 5.33704C14.5838 7.71107 13.0889 9.63307 11.2488 9.63307C9.40865 9.63307 7.91376 7.71107 7.91376 5.33704C7.91376 2.96301 9.40865 0.161865 11.2488 0.161865Z" fill="#7684E7"/>
<path d="M1.26507 12.6798C0.482029 10.7222 0.823719 7.90686 2.38624 7.28043C3.9452 6.65756 6.13415 8.46211 6.91718 10.4233C7.70022 12.3809 7.06667 14.4737 5.50771 15.0966C3.9452 15.7195 2.04455 14.6374 1.26507 12.6798Z" fill="#7684E7"/>
<path d="M30.7073 12.6798C29.9278 14.6374 28.0272 15.7195 26.4647 15.0966C24.9057 14.4737 24.2721 12.3809 25.0552 10.4233C25.8382 8.46211 28.0272 6.65756 29.5861 7.28043C31.1486 7.90686 31.4903 10.7222 30.7073 12.6798Z" fill="#7684E7"/>
<path fill-rule="evenodd" clip-rule="evenodd" d="M27.084 28.1946C26.091 29.4973 24.2081 30.1487 22.7382 29.444C21.8626 29.024 21.1543 28.1769 20.1897 28.095C19.3035 28.0202 18.5204 28.6182 17.7801 29.1165C17.2462 29.4795 16.602 29.807 15.9862 29.8106C15.3705 29.807 14.7262 29.4795 14.1924 29.1165C13.452 28.6182 12.669 28.0202 11.7827 28.095C10.8182 28.1769 10.1099 29.024 9.2343 29.444C7.76432 30.1487 5.88147 29.4973 4.88843 28.1946C3.8954 26.892 3.69964 25.0981 4.05557 23.4964C4.41505 21.8912 5.26572 20.4461 6.20892 19.1043C8.41923 15.965 11.9749 12.7937 15.9862 12.7937C20.0153 12.7937 23.5532 15.965 25.7635 19.1043C26.7067 20.4461 27.5574 21.8912 27.9169 23.4964C28.2728 25.0981 28.0771 26.892 27.084 28.1946ZM19.8729 19.3392C19.6879 18.5882 19.0935 17.9262 18.3638 17.8336C17.5203 17.7268 16.5415 18.3177 15.9862 19.0011C15.431 18.3177 14.4522 17.7268 13.6086 17.8336C12.879 17.9262 12.2846 18.5882 12.0995 19.3392C11.9073 20.1258 12.1031 20.8768 12.4768 21.5637C12.9324 22.393 13.6478 23.1263 14.2564 23.6957C14.5803 24.0018 14.922 24.2866 15.2779 24.55C15.2779 24.5523 15.2791 24.5535 15.2815 24.5535C15.6979 24.8632 16.2745 24.8632 16.691 24.5535C16.6933 24.5535 16.6945 24.5523 16.6945 24.55C17.0505 24.2866 17.3921 24.0018 17.716 23.6957C18.3247 23.1263 19.0401 22.393 19.4957 21.5637C19.8694 20.8768 20.0651 20.1258 19.8729 19.3392Z" fill="#7684E7"/>
</svg>
