<svg width="17" height="16" viewBox="0 0 17 16" fill="none" xmlns="http://www.w3.org/2000/svg">
<path d="M12.4844 0.496094C11.5619 0.496094 10.7161 0.788414 9.97067 1.36495C9.25597 1.91769 8.78014 2.62169 8.5 3.13362C8.21986 2.62166 7.74403 1.91769 7.02933 1.36495C6.28386 0.788414 5.43811 0.496094 4.51562 0.496094C1.94132 0.496094 0 2.60174 0 5.39402C0 8.41066 2.42194 10.4746 6.08842 13.5991C6.71105 14.1297 7.41678 14.7312 8.1503 15.3726C8.24699 15.4573 8.37117 15.5039 8.5 15.5039C8.62883 15.5039 8.75301 15.4573 8.8497 15.3727C9.58329 14.7311 10.289 14.1297 10.912 13.5988C14.5781 10.4746 17 8.41066 17 5.39402C17 2.60174 15.0587 0.496094 12.4844 0.496094Z" fill="#323030"/>
</svg>
