<svg width="17" height="17" viewBox="0 0 17 17" fill="none" xmlns="http://www.w3.org/2000/svg">
<path d="M12.0859 1.0625C11.4136 1.06328 10.7486 1.2018 10.1318 1.46951C9.51507 1.73722 8.95971 2.12845 8.5 2.61906C7.8263 1.90004 6.95201 1.40016 5.99062 1.18429C5.02924 0.968433 4.02516 1.04657 3.10874 1.40855C2.19232 1.77054 1.40589 2.39966 0.851525 3.21424C0.297165 4.02882 0.000485111 4.99124 0 5.97656C0 10.8694 7.89172 15.6719 8.23438 15.8605C8.317 15.9101 8.41158 15.9363 8.50797 15.9363C8.60436 15.9363 8.69894 15.9101 8.78156 15.8605C9.10828 15.6719 17 10.8694 17 5.97656C16.9986 4.6737 16.4804 3.42461 15.5592 2.50335C14.6379 1.58209 13.3888 1.06391 12.0859 1.0625ZM8.5 14.7794C7.12672 13.9028 1.0625 9.80687 1.0625 5.97656C1.06318 5.15842 1.32437 4.36175 1.8082 3.70201C2.29204 3.04227 2.97339 2.55374 3.7535 2.30722C4.53362 2.0607 5.37197 2.06899 6.14705 2.3309C6.92214 2.59281 7.59369 3.09472 8.06437 3.76391C8.11341 3.83351 8.17846 3.89031 8.25405 3.92952C8.32963 3.96873 8.41353 3.98919 8.49867 3.98919C8.58382 3.98919 8.66772 3.96873 8.7433 3.92952C8.81888 3.89031 8.88393 3.83351 8.93297 3.76391C9.40327 3.09357 10.075 2.59057 10.8506 2.32793C11.6262 2.06528 12.4653 2.05666 13.2461 2.30331C14.0269 2.54997 14.7088 3.03906 15.1928 3.69959C15.6768 4.36012 15.9376 5.1577 15.9375 5.97656C15.9375 9.80422 9.87328 13.9002 8.5 14.7794Z" fill="#323030"/>
</svg>
