<svg width="23" height="22" viewBox="0 0 23 22" fill="none" xmlns="http://www.w3.org/2000/svg">
<g clip-path="url(#clip0_15_2421)">
<path d="M11.2738 5.81813L3.48437 12.2397C3.48437 12.2487 3.48209 12.2621 3.47754 12.2802C3.47308 12.2983 3.4707 12.3114 3.4707 12.3207V18.8231C3.4707 19.0579 3.55654 19.2614 3.72816 19.4327C3.89974 19.6042 4.10292 19.6904 4.33774 19.6904H9.5396V14.4883H13.008V19.6906H18.2098C18.4446 19.6906 18.648 19.6045 18.8194 19.4327C18.991 19.2616 19.0771 19.058 19.0771 18.8231V12.3207C19.0771 12.2846 19.0722 12.2574 19.0635 12.2397L11.2738 5.81813Z" fill="#373737"/>
<path d="M22.0436 10.7765L19.077 8.31095V2.78373C19.077 2.65738 19.0364 2.55346 18.9549 2.47213C18.874 2.3909 18.7701 2.35029 18.6434 2.35029H16.0425C15.916 2.35029 15.8121 2.3909 15.7307 2.47213C15.6495 2.55346 15.609 2.65742 15.609 2.78373V5.42537L12.3036 2.66169C12.0149 2.42687 11.6716 2.30948 11.2742 2.30948C10.8768 2.30948 10.5336 2.42687 10.2447 2.66169L0.504051 10.7765C0.413755 10.8486 0.364266 10.9457 0.35506 11.0677C0.345903 11.1895 0.377456 11.2959 0.449816 11.3862L1.28971 12.3887C1.36207 12.4699 1.45678 12.5196 1.57422 12.5378C1.68264 12.5469 1.79106 12.5152 1.89948 12.443L11.2739 4.62609L20.6485 12.4429C20.7209 12.5059 20.8155 12.5374 20.933 12.5374H20.9737C21.0909 12.5195 21.1854 12.4695 21.2582 12.3885L22.0982 11.3861C22.1704 11.2957 22.202 11.1895 22.1926 11.0675C22.1834 10.9458 22.1337 10.8488 22.0436 10.7765Z" fill="#373737"/>
</g>
<defs>
<clipPath id="clip0_15_2421">
<rect width="21.8408" height="21.8408" fill="white" transform="translate(0.353516 0.0796204)"/>
</clipPath>
</defs>
</svg>
