<svg width="47" height="46" viewBox="0 0 47 46" fill="none" xmlns="http://www.w3.org/2000/svg">
<circle cx="23.5" cy="23" r="22.5" fill="#C814A3" stroke="#C814A3"/>
<g clip-path="url(#clip0_9_1603)">
<path d="M29.3137 16.7007C29.046 16.7007 28.8281 16.9185 28.8281 17.1862C28.8281 17.4539 29.046 17.6718 29.3137 17.6718C29.5814 17.6718 29.7992 17.454 29.7992 17.1862C29.7992 16.9185 29.5814 16.7007 29.3137 16.7007Z" fill="white"/>
<path d="M23.5 18.6953C21.1264 18.6953 19.1954 20.6263 19.1954 22.9998C19.1954 25.3734 21.1264 27.3044 23.5 27.3044C25.8735 27.3044 27.8045 25.3734 27.8045 22.9999C27.8045 20.6264 25.8735 18.6953 23.5 18.6953Z" fill="white"/>
<path d="M28.0173 13H18.9827C15.9595 13 13.5 15.4595 13.5 18.4827V27.5173C13.5 30.5405 15.9595 33 18.9827 33H28.0173C31.0405 33 33.5 30.5405 33.5 27.5173V18.4827C33.5 15.4595 31.0405 13 28.0173 13ZM23.5 28.4856C20.4752 28.4856 18.0144 26.0248 18.0144 23C18.0144 19.9752 20.4752 17.5145 23.5 17.5145C26.5248 17.5145 28.9856 19.9752 28.9856 23C28.9856 26.0248 26.5248 28.4856 23.5 28.4856ZM29.3137 18.853C28.3947 18.853 27.6471 18.1053 27.6471 17.1863C27.6471 16.2673 28.3947 15.5196 29.3137 15.5196C30.2327 15.5196 30.9804 16.2673 30.9804 17.1863C30.9804 18.1053 30.2327 18.853 29.3137 18.853Z" fill="white"/>
</g>
<defs>
<clipPath id="clip0_9_1603">
<rect width="20" height="20" fill="white" transform="translate(13.5 13)"/>
</clipPath>
</defs>
</svg>
