<svg width="44" height="44" viewBox="0 0 44 44" fill="none" xmlns="http://www.w3.org/2000/svg">
<g clip-path="url(#clip0_8_1134)">
<path d="M18.6767 6.63058C20.2703 5.71051 22.9655 7.38892 24.1525 9.44489C25.3395 11.5009 25.0059 13.9128 23.4123 14.8329C21.8187 15.753 19.5631 14.8359 18.376 12.7799C17.189 10.724 17.0831 7.55065 18.6767 6.63058Z" fill="white"/>
<path d="M10.4713 11.3679C12.0649 10.4478 14.7601 12.1262 15.9471 14.1822C17.1341 16.2382 16.8005 18.6501 15.2069 19.5702C13.6133 20.4903 11.3577 19.5732 10.1707 17.5172C8.98364 15.4613 8.87768 12.288 10.4713 11.3679Z" fill="white"/>
<path d="M8.08413 27.2006C6.4272 25.8968 5.31542 23.2878 6.35538 21.964C7.39405 20.6451 10.192 21.1134 11.8507 22.4203C13.5076 23.7241 14.0054 25.8534 12.9667 27.1723C11.925 28.4929 9.73798 28.5062 8.08413 27.2006Z" fill="white"/>
<path d="M33.5818 12.4794C33.8856 14.5645 32.7806 16.4519 31.116 16.6937C29.4544 16.9337 27.8593 15.4381 27.5587 13.3512C27.2562 11.2613 28.2496 8.60403 29.9112 8.36397C31.5776 8.12522 33.2812 10.3926 33.5818 12.4794Z" fill="white"/>
<path fill-rule="evenodd" clip-rule="evenodd" d="M38.2014 27.7273C37.9927 29.352 36.6878 30.8575 35.0624 30.9822C34.0941 31.0563 33.0572 30.6768 32.1809 31.0882C31.376 31.4666 30.9969 32.3759 30.6049 33.1776C30.324 33.759 29.9298 34.3647 29.3983 34.6756C28.8633 34.9804 28.1417 35.019 27.4978 34.9715C26.6075 34.9101 25.6304 34.7838 24.9002 35.2917C24.1058 35.8448 23.916 36.9326 23.3677 37.7341C22.447 39.0794 20.4908 39.4568 18.9794 38.8251C17.4681 38.1935 16.4016 36.7378 15.909 35.1728C15.4177 33.6029 15.4319 31.9261 15.5778 30.2924C15.9224 26.4686 17.416 21.9443 20.8899 19.9386C24.3792 17.9241 29.0288 18.9015 32.5126 20.5151C34.0004 21.2056 35.4596 22.0317 36.5735 23.2421C37.6826 24.4512 38.41 26.1026 38.2014 27.7273ZM27.5287 23.6638C26.9929 23.106 26.1471 22.8298 25.4689 23.1145C24.685 23.4438 24.1328 24.4449 23.9936 25.3143C23.1711 25.0001 22.028 24.9779 21.3508 25.4921C20.7652 25.9371 20.5814 26.8076 20.7967 27.5505C21.0235 28.3279 21.5686 28.8804 22.2357 29.2884C23.0449 29.7788 24.031 30.0561 24.8429 30.245C25.2764 30.3481 25.7147 30.4238 26.1546 30.474C26.1558 30.476 26.1575 30.4765 26.1595 30.4753C26.675 30.5352 27.1743 30.2469 27.3801 29.7706C27.3822 29.7694 27.3826 29.7677 27.3815 29.7657C27.558 29.3596 27.7115 28.9422 27.839 28.5152C28.0813 27.7177 28.3343 26.725 28.3142 25.779C28.2944 24.9972 28.0884 24.2489 27.5287 23.6638Z" fill="white"/>
</g>
<defs>
<clipPath id="clip0_8_1134">
<rect width="31.9724" height="31.9724" fill="white" transform="translate(0.148621 15.9861) rotate(-30)"/>
</clipPath>
</defs>
</svg>
