<svg width="32" height="32" viewBox="0 0 32 32" fill="none" xmlns="http://www.w3.org/2000/svg">
<g clip-path="url(#clip0_2_180)">
<path d="M20.7236 1.16185C22.5637 1.16185 24.0586 3.96299 24.0586 6.33702C24.0586 8.71105 22.5637 10.6331 20.7236 10.6331C18.8834 10.6331 17.3885 8.71105 17.3885 6.33702C17.3885 3.96299 18.8834 1.16185 20.7236 1.16185Z" fill="white"/>
<path d="M11.2488 1.16185C13.0889 1.16185 14.5838 3.96299 14.5838 6.33702C14.5838 8.71105 13.0889 10.6331 11.2488 10.6331C9.40866 10.6331 7.91377 8.71105 7.91377 6.33702C7.91377 3.96299 9.40866 1.16185 11.2488 1.16185Z" fill="white"/>
<path d="M1.26507 13.6798C0.482029 11.7222 0.823719 8.90681 2.38624 8.28038C3.9452 7.65751 6.13415 9.46205 6.91718 11.4232C7.70022 13.3808 7.06667 15.4737 5.50771 16.0965C3.9452 16.7194 2.04455 15.6374 1.26507 13.6798Z" fill="white"/>
<path d="M30.7073 13.6798C29.9278 15.6374 28.0272 16.7194 26.4647 16.0965C24.9057 15.4737 24.2722 13.3808 25.0552 11.4232C25.8383 9.46205 28.0272 7.65751 29.5862 8.28038C31.1487 8.90681 31.4904 11.7222 30.7073 13.6798Z" fill="white"/>
<path fill-rule="evenodd" clip-rule="evenodd" d="M27.084 29.1946C26.091 30.4973 24.2081 31.1487 22.7381 30.4439C21.8625 30.0239 21.1543 29.1768 20.1897 29.095C19.3034 29.0202 18.5204 29.6182 17.7801 30.1165C17.2462 30.4795 16.602 30.807 15.9862 30.8105C15.3704 30.807 14.7262 30.4795 14.1923 30.1165C13.452 29.6182 12.669 29.0202 11.7827 29.095C10.8181 29.1768 10.1098 30.0239 9.23427 30.4439C7.76429 31.1487 5.88144 30.4973 4.8884 29.1946C3.89537 27.8919 3.69961 26.0981 4.05553 24.4964C4.41502 22.8912 5.26569 21.4461 6.20889 20.1043C8.4192 16.965 11.9749 13.7937 15.9862 13.7937C20.0153 13.7937 23.5532 16.965 25.7635 20.1043C26.7067 21.4461 27.5574 22.8912 27.9169 24.4964C28.2728 26.0981 28.077 27.8919 27.084 29.1946ZM19.8729 20.3392C19.6878 19.5882 19.0934 18.9261 18.3638 18.8336C17.5202 18.7268 16.5414 19.3177 15.9862 20.001C15.431 19.3177 14.4522 18.7268 13.6086 18.8336C12.879 18.9261 12.2846 19.5882 12.0995 20.3392C11.9073 21.1258 12.103 21.8768 12.4768 22.5637C12.9323 23.393 13.6478 24.1262 14.2564 24.6957C14.5803 25.0018 14.922 25.2866 15.2779 25.5499C15.2779 25.5523 15.2791 25.5535 15.2815 25.5535C15.6979 25.8632 16.2745 25.8632 16.6909 25.5535C16.6933 25.5535 16.6945 25.5523 16.6945 25.5499C17.0504 25.2866 17.3921 25.0018 17.716 24.6957C18.3246 24.1262 19.04 23.393 19.4956 22.5637C19.8694 21.8768 20.0651 21.1258 19.8729 20.3392Z" fill="white"/>
</g>
<defs>
<clipPath id="clip0_2_180">
<rect width="31.9724" height="31.9724" fill="white"/>
</clipPath>
</defs>
</svg>
