<svg width="19" height="20" viewBox="0 0 19 20" fill="none" xmlns="http://www.w3.org/2000/svg">
<path d="M17.1343 13.7652C17.0876 13.7281 13.6915 11.2802 12.7593 11.4559C12.3144 11.5346 12.0599 11.8381 11.5494 12.4456C11.4672 12.5438 11.2698 12.7788 11.1164 12.946C10.7937 12.8407 10.4789 12.7126 10.1745 12.5626C8.60313 11.7976 7.33352 10.528 6.56851 8.95659C6.4184 8.6522 6.29028 8.33744 6.18515 8.01473C6.35287 7.8607 6.58791 7.66332 6.68831 7.57889C7.29302 7.07116 7.59708 6.81673 7.67581 6.37061C7.83725 5.44644 5.39104 2.02699 5.36537 1.99618C5.25438 1.83763 5.10954 1.70573 4.94132 1.61003C4.7731 1.51432 4.58571 1.45721 4.3927 1.44282C3.40121 1.44282 0.570496 5.11499 0.570496 5.73339C0.570496 5.76933 0.622409 9.42268 5.12748 14.0053C9.70557 18.5053 13.3583 18.5572 13.3943 18.5572C14.0133 18.5572 17.6849 15.7265 17.6849 14.735C17.6706 14.5426 17.6139 14.3559 17.5187 14.1882C17.4234 14.0204 17.2922 13.876 17.1343 13.7652Z" fill="#323030"/>
</svg>
