<svg width="20" height="21" viewBox="0 0 20 21" fill="none" xmlns="http://www.w3.org/2000/svg">
<path d="M19.6951 19.0335L14.853 13.8609C16.098 12.3408 16.7801 10.4281 16.7801 8.437C16.7801 3.78491 13.0951 0 8.56585 0C4.03656 0 0.351562 3.78491 0.351562 8.437C0.351562 13.0891 4.03656 16.874 8.56585 16.874C10.2662 16.874 11.8866 16.3472 13.2719 15.3473L18.1508 20.5591C18.3548 20.7767 18.6291 20.8966 18.923 20.8966C19.2012 20.8966 19.4651 20.7877 19.6655 20.5896C20.0912 20.1688 20.1048 19.4711 19.6951 19.0335ZM8.56585 2.20096C11.9137 2.20096 14.6373 4.99837 14.6373 8.437C14.6373 11.8756 11.9137 14.673 8.56585 14.673C5.21799 14.673 2.49442 11.8756 2.49442 8.437C2.49442 4.99837 5.21799 2.20096 8.56585 2.20096Z" fill="#323030"/>
</svg>
