<svg width="37" height="37" viewBox="0 0 37 37" fill="none" xmlns="http://www.w3.org/2000/svg">
<path d="M36.9653 12.4389L34.8725 4.06306C34.6158 3.034 33.6908 2.3125 32.6294 2.3125H4.37294C3.3115 2.3125 2.3865 3.034 2.1275 4.06306L0.0346875 12.4389C0.0115625 12.5291 0 12.6239 0 12.7188C0 15.9054 2.46281 18.5 5.49219 18.5C7.252 18.5 8.82219 17.6236 9.82812 16.2638C10.8341 17.6236 12.4043 18.5 14.1641 18.5C15.9239 18.5 17.4941 17.6236 18.5 16.2638C19.5059 17.6236 21.0738 18.5 22.8359 18.5C24.5981 18.5 26.1659 17.6236 27.1719 16.2638C28.1778 17.6236 29.7457 18.5 31.5078 18.5C34.5372 18.5 37 15.9054 37 12.7188C37 12.6239 36.9884 12.5291 36.9653 12.4389Z" fill="#323030"/>
<path d="M31.5078 20.8125C29.933 20.8125 28.4368 20.3315 27.1719 19.4528C24.642 21.2126 21.0299 21.2126 18.5 19.4528C15.9701 21.2126 12.358 21.2126 9.82812 19.4528C8.56319 20.3315 7.067 20.8125 5.49219 20.8125C4.35675 20.8125 3.28606 20.5466 2.3125 20.0933V32.375C2.3125 33.6515 3.3485 34.6875 4.625 34.6875H13.875V25.4375H23.125V34.6875H32.375C33.6515 34.6875 34.6875 33.6515 34.6875 32.375V20.0933C33.7139 20.5466 32.6432 20.8125 31.5078 20.8125Z" fill="#323030"/>
</svg>
