<svg width="35" height="35" viewBox="0 0 35 35" fill="none" xmlns="http://www.w3.org/2000/svg">
<g clip-path="url(#clip0_8_1327)">
<path d="M22.722 19.0777C23.0486 18.5623 24.6898 15.9074 24.9087 14.2796C24.9354 14.0805 24.9113 13.8777 24.8389 13.6902C24.6115 13.1023 22.9217 9.68899 20.9156 8.72664C20.9139 8.72566 19.353 8.00207 19.353 8.00207L18.6721 7.42738L17.6215 8.47305L18.652 15.3624C18.6554 15.3855 18.6496 15.4091 18.6358 15.428L17.5854 16.8657C17.5685 16.8886 17.542 16.9022 17.5136 16.9022C17.4852 16.9022 17.4584 16.8886 17.4419 16.8657L16.3913 15.428C16.3776 15.4091 16.3718 15.3855 16.3753 15.3624L17.4059 8.47206L16.3563 7.42731L15.675 8.00199C15.675 8.00199 14.1228 8.71173 14.084 8.7303C12.0782 9.69264 10.3884 13.1058 10.161 13.6938C10.0885 13.8815 10.0645 14.084 10.091 14.2834C10.3099 15.9112 11.9511 18.5659 12.2778 19.0815C12.5053 19.44 12.8917 19.6362 13.2871 19.6361C13.495 19.6361 13.7053 19.581 13.896 19.4675C13.9921 19.7372 14.1289 19.9883 14.2973 20.2187L14.298 33.5521C14.2982 34.3518 14.9466 34.9999 15.7461 34.9998C16.5461 34.9998 17.1942 34.3516 17.194 33.5519L17.2095 21.7991C17.3116 21.8077 17.4135 21.8128 17.5138 21.8128C17.6106 21.8128 17.7086 21.808 17.8068 21.7998L17.8065 33.552C17.8065 34.3517 18.4546 34.9998 19.2543 34.9998C20.0539 34.9998 20.7022 34.3517 20.7022 33.5521L20.7024 20.2563C20.8814 20.0188 21.027 19.7586 21.1278 19.478C21.3122 19.582 21.5134 19.6325 21.7125 19.6325C22.1078 19.6326 22.4945 19.4363 22.722 19.0777Z" fill="#323030"/>
<path d="M17.5139 7.3799C19.2593 7.3799 20.5622 5.75309 20.5918 3.02583C20.6107 1.13278 19.7094 0 17.5139 0C15.3181 0 14.4168 1.13278 14.4353 3.02583C14.4654 5.75309 15.7676 7.3799 17.5139 7.3799Z" fill="#323030"/>
<path d="M32.6912 17.5635C32.5051 17.0824 31.1224 14.2895 29.4809 13.5022C29.4794 13.5013 28.2023 12.9093 28.2023 12.9093L27.645 12.4391L26.773 13.3071C26.7731 13.3075 26.7734 13.3079 26.7735 13.3084L27.5536 19.1069C27.5562 19.1238 27.552 19.1409 27.5419 19.1547L26.7752 20.2042C26.763 20.221 26.7434 20.2308 26.7229 20.2308C26.7023 20.2308 26.6826 20.221 26.6705 20.2042L25.9037 19.1547C25.8937 19.1409 25.8894 19.1238 25.892 19.1069L26.6189 13.3083C26.6192 13.3069 26.62 13.3058 26.6203 13.3045L25.7507 12.4391L25.4663 12.6791C25.6615 13.0698 25.7681 13.3196 25.7719 13.3295C25.905 13.6736 25.9493 14.0484 25.9 14.4135C25.6662 16.1533 24.1374 18.7064 23.6081 19.5481L23.4169 19.821C23.0024 20.3332 22.3825 20.6326 21.7128 20.6326C21.7096 20.6326 21.7063 20.6326 21.7029 20.6326V20.7632C22.0173 21.3408 22.3047 21.8031 22.4135 21.9751C22.5996 22.2683 22.9158 22.4289 23.2393 22.4288C23.4094 22.4288 23.5815 22.3837 23.7377 22.2909C23.8162 22.5115 23.9282 22.7171 24.0658 22.9055L24.0666 33.8155C24.0666 34.4699 24.5973 35.0002 25.2513 35.0001C25.906 35.0001 26.4362 34.4697 26.436 33.8153L26.4488 24.1988C26.5324 24.2058 26.6155 24.2099 26.6977 24.2099C26.777 24.2099 26.8572 24.2059 26.9373 24.1993L26.9371 33.8154C26.9371 34.4698 27.4673 35.0001 28.1219 35.0001C28.776 35.0001 29.3063 34.4698 29.3063 33.8155L29.3066 22.9363C29.453 22.7419 29.5722 22.529 29.6547 22.2995C29.8055 22.3847 29.9701 22.426 30.133 22.426C30.4565 22.426 30.7728 22.2653 30.9589 21.972C31.2262 21.5501 32.569 19.3779 32.7481 18.0459C32.7703 17.883 32.7506 17.717 32.6912 17.5635ZM29.7876 20.1222L29.788 16.4228C30.1932 16.9781 30.5601 17.6023 30.7612 18.0221C30.6109 18.5583 30.1975 19.3939 29.7876 20.1222Z" fill="#323030"/>
<path d="M26.6975 12.4001C28.1257 12.4001 29.1918 11.069 29.2161 8.83737C29.2314 7.28846 28.4941 6.36157 26.6975 6.36157C24.9007 6.36157 24.1633 7.28846 24.1787 8.83737C24.2031 11.069 25.2688 12.4001 26.6975 12.4001Z" fill="#323030"/>
<path d="M11.5808 19.822L11.4152 19.5885C10.9086 18.7864 9.3376 16.1846 9.09983 14.4169C9.05114 14.0509 9.0955 13.6767 9.22827 13.3336C9.232 13.3234 9.34156 13.0667 9.54213 12.6666L9.2727 12.4392L8.39976 13.3081C8.39976 13.3083 8.39983 13.3084 8.39983 13.3085L9.17995 19.107C9.18254 19.1239 9.17835 19.1411 9.16823 19.1549L8.40151 20.2044C8.38926 20.2211 8.36978 20.2311 8.34916 20.2311C8.32846 20.2311 8.30891 20.2211 8.29681 20.2044L7.53001 19.1549C7.51996 19.1411 7.5157 19.1239 7.51829 19.107L8.24515 13.3084C8.24538 13.3068 8.24636 13.3055 8.24675 13.3038L7.37829 12.4391L6.8208 12.9094C6.8208 12.9094 5.55053 13.4901 5.51888 13.5052C3.8776 14.2927 2.49495 17.0855 2.30884 17.5666C2.24965 17.7202 2.23002 17.8859 2.25178 18.0489C2.43089 19.3809 3.77367 21.5532 4.04111 21.9751C4.22722 22.2684 4.54336 22.4288 4.86696 22.4288C5.03709 22.4288 5.20913 22.3836 5.36518 22.2909C5.44378 22.5115 5.55555 22.7171 5.6935 22.9054L5.6941 33.8155C5.6941 34.4699 6.22481 35.0001 6.87901 35.0001C7.53358 35.0001 8.06376 34.4697 8.06368 33.8153L8.07646 24.1988C8.15985 24.2058 8.24325 24.2099 8.32542 24.2099C8.4047 24.2099 8.48467 24.2058 8.56494 24.1992L8.56471 33.8153C8.56471 34.4697 9.09496 35 9.74939 35C10.4037 35 10.9341 34.4697 10.9341 33.8154L10.9343 22.9362C11.0808 22.7418 11.1999 22.5289 11.2825 22.2994C11.4332 22.3846 11.5978 22.4259 11.7608 22.4259C12.0842 22.4259 12.4006 22.2652 12.5868 21.972C12.6955 21.8 12.9829 21.3377 13.2974 20.7601V20.6363C13.2938 20.6363 13.2905 20.6363 13.2871 20.6363C12.616 20.6364 11.9949 20.3356 11.5808 19.822ZM4.23848 18.0251C4.44354 17.5975 4.82047 16.9573 5.23461 16.3942L5.23545 20.1665C4.81781 19.4292 4.39157 18.5724 4.23848 18.0251Z" fill="#323030"/>
<path d="M8.32525 12.4001C9.75332 12.4001 10.8194 11.069 10.8438 8.83737C10.859 7.28846 10.1217 6.36157 8.32525 6.36157C6.52845 6.36157 5.79102 7.28846 5.80639 8.83737C5.83081 11.069 6.89656 12.4001 8.32525 12.4001Z" fill="#323030"/>
</g>
<defs>
<clipPath id="clip0_8_1327">
<rect width="35" height="35" fill="white"/>
</clipPath>
</defs>
</svg>
