<svg width="47" height="46" viewBox="0 0 47 46" fill="none" xmlns="http://www.w3.org/2000/svg">
<circle cx="23.5" cy="23" r="22.5" fill="#27A6E6" stroke="#27A6E6"/>
<g clip-path="url(#clip0_9_1596)">
<path d="M13.8533 22.6431L18.4617 24.3631L20.2454 30.0996C20.3595 30.467 20.8088 30.6028 21.107 30.359L23.6758 28.2648C23.9451 28.0454 24.3286 28.0345 24.61 28.2388L29.2432 31.6026C29.5622 31.8344 30.0141 31.6596 30.0941 31.2742L33.4882 14.9481C33.5755 14.527 33.1618 14.1758 32.7609 14.3308L13.8479 21.6269C13.3811 21.8069 13.3852 22.4677 13.8533 22.6431ZM19.9579 23.4475L28.9645 17.9004C29.1263 17.801 29.2929 18.0198 29.1539 18.1488L21.7209 25.0581C21.4596 25.3013 21.2911 25.6268 21.2433 25.98L20.9901 27.8564C20.9566 28.107 20.6047 28.1318 20.5355 27.8894L19.5617 24.4677C19.4502 24.0774 19.6127 23.6606 19.9579 23.4475Z" fill="white"/>
</g>
<defs>
<clipPath id="clip0_9_1596">
<rect width="20" height="20" fill="white" transform="translate(13.5 13)"/>
</clipPath>
</defs>
</svg>
