<svg width="30" height="30" viewBox="0 0 30 30" fill="none" xmlns="http://www.w3.org/2000/svg">
<rect width="30" height="30" rx="2.46226" fill="#E81A1A"/>
<g clip-path="url(#clip0_368_3265)">
<path d="M18.8763 12.2096H11.1234C10.8888 12.2096 10.6986 12.3998 10.6986 12.6344V19.2703C10.6986 20.3982 11.6163 21.3158 12.7441 21.3158H17.2555C18.3833 21.3158 19.301 20.3982 19.301 19.2703V12.6344C19.301 12.3998 19.1109 12.2096 18.8763 12.2096ZM13.9787 18.7574C13.9787 19.0456 13.745 19.2792 13.4568 19.2792C13.1686 19.2792 12.9349 19.0456 12.9349 18.7574V14.768C12.9349 14.4798 13.1686 14.2462 13.4568 14.2462C13.745 14.2462 13.9787 14.4798 13.9787 14.768V18.7574ZM17.0648 18.7574C17.0648 19.0456 16.8311 19.2792 16.5429 19.2792C16.2547 19.2792 16.021 19.0456 16.021 18.7574V14.768C16.021 14.4798 16.2547 14.2462 16.5429 14.2462C16.8311 14.2462 17.0648 14.4798 17.0648 14.768V18.7574Z" fill="white"/>
<path d="M18.4506 9.34515H16.6002V9.18467C16.6002 8.90872 16.3757 8.68422 16.0998 8.68422H13.8997C13.6238 8.68422 13.3993 8.90872 13.3993 9.18467V9.34515H11.5489C10.8403 9.34515 10.2638 9.9216 10.2638 10.6302V11.4542C10.2638 11.6016 10.3833 11.7211 10.5307 11.7211H19.4689C19.6162 11.7211 19.7357 11.6016 19.7357 11.4542V10.6302C19.7357 9.92162 19.1592 9.34515 18.4506 9.34515Z" fill="white"/>
</g>
<defs>
<clipPath id="clip0_368_3265">
<rect width="12.6316" height="12.6316" fill="white" transform="translate(8.6842 8.68422)"/>
</clipPath>
</defs>
</svg>
